HIERARCHY
ROOT Hips
{
	OFFSET 0.000000 0.000000 0.000000
	CHANNELS 6 Xposition Yposition Zposition Xrotation Yrotation Zrotation
	JOINT LeftUpLeg_virtual
	{
		OFFSET 0.000000 0.000000 0.000000
		CHANNELS 3 Xrotation Yrotation Zrotation
		JOINT LeftUpLeg
		{
			OFFSET 15.427100 -6.655098 0.678600
			CHANNELS 3 Xrotation Yrotation Zrotation
			JOINT LeftLeg
			{
				OFFSET 4.081073 -39.591068 13.024000
				CHANNELS 3 Xrotation Yrotation Zrotation
				JOINT LeftFoot
				{
					OFFSET -4.081074 -37.707932 -15.979700
					CHANNELS 3 Xrotation Yrotation Zrotation
					JOINT LeftToeBase
					{
						OFFSET 5.346399 -15.068900 20.645000
						CHANNELS 3 Xrotation Yrotation Zrotation
						JOINT LeftToe_End
						{
							OFFSET 2.754700 0.931300 11.300900
							CHANNELS 3 Xrotation Yrotation Zrotation
							End Site
							{
								OFFSET 0 0 0
							}
						}
					}
				}
			}
		}
	}
	JOINT RightUpLeg_virtual
	{
		OFFSET 0.000000 0.000000 0.000000
		CHANNELS 3 Xrotation Yrotation Zrotation
		JOINT RightUpLeg
		{
			OFFSET -15.569500 -6.655098 0.678600
			CHANNELS 3 Xrotation Yrotation Zrotation
			JOINT RightLeg
			{
				OFFSET -4.081825 -39.591045 13.023800
				CHANNELS 3 Xrotation Yrotation Zrotation
				JOINT RightFoot
				{
					OFFSET 4.081824 -37.707954 -15.979600
					CHANNELS 3 Xrotation Yrotation Zrotation
					JOINT RightToeBase
					{
						OFFSET -5.346400 -15.068900 20.645000
						CHANNELS 3 Xrotation Yrotation Zrotation
						JOINT RightToe_End
						{
							OFFSET -2.754700 0.931300 11.300900
							CHANNELS 3 Xrotation Yrotation Zrotation
							End Site
							{
								OFFSET 0 0 0
							}
						}
					}
				}
			}
		}
	}
	JOINT Spine_virtual
	{
		OFFSET 0.000000 0.000000 0.000000
		CHANNELS 3 Xrotation Yrotation Zrotation
		JOINT Spine
		{
			OFFSET -0.279200 12.230698 -2.892100
			CHANNELS 3 Xrotation Yrotation Zrotation
			JOINT Spine1
			{
				OFFSET -0.232667 10.192268 -1.242267
				CHANNELS 3 Xrotation Yrotation Zrotation
				JOINT Spine1_split
				{
					OFFSET -0.232667 10.192268 -1.242267
					CHANNELS 3 Xrotation Yrotation Zrotation
					JOINT Spine2
					{
						OFFSET -0.232667 10.192268 -1.242267
						CHANNELS 3 Xrotation Yrotation Zrotation
						JOINT Neck_virtual
						{
							OFFSET 0.000000 0.000000 0.000000
							CHANNELS 3 Xrotation Yrotation Zrotation
							JOINT Neck
							{
								OFFSET -0.418800 17.814194 8.416900
								CHANNELS 3 Xrotation Yrotation Zrotation
								JOINT Head
								{
									OFFSET 0.000000 7.031097 3.806800
									CHANNELS 3 Xrotation Yrotation Zrotation
									JOINT HeadTop_End
									{
										OFFSET 0.000000 24.646606 12.978600
										CHANNELS 3 Xrotation Yrotation Zrotation
										End Site
										{
											OFFSET 0 0 0
										}
									}
								}
							}
						}
						JOINT LeftShoulder_virtual
						{
							OFFSET 0.000000 0.000000 0.000000
							CHANNELS 3 Xrotation Yrotation Zrotation
							JOINT LeftShoulder
							{
								OFFSET 8.476499 7.247704 -3.868750
								CHANNELS 3 Xrotation Yrotation Zrotation
								JOINT LeftShoulder_split
								{
									OFFSET 8.476499 7.247704 -3.868750
									CHANNELS 3 Xrotation Yrotation Zrotation
									JOINT LeftArm
									{
										OFFSET 9.308998 -2.777710 0.208600
										CHANNELS 3 Xrotation Yrotation Zrotation
										JOINT LeftForeArm
										{
											OFFSET 29.972298 0.000000 0.000000
											CHANNELS 3 Xrotation Yrotation Zrotation
											JOINT LeftHand
											{
												OFFSET 26.026505 0.000000 0.000000
												CHANNELS 3 Xrotation Yrotation Zrotation
												End Site
												{
													OFFSET 0 0 0
												}
											}
										}
									}
								}
							}
						}
						JOINT RightShoulder_virtual
						{
							OFFSET 0.000000 0.000000 0.000000
							CHANNELS 3 Xrotation Yrotation Zrotation
							JOINT RightShoulder
							{
								OFFSET -7.570500 7.247704 -3.868750
								CHANNELS 3 Xrotation Yrotation Zrotation
								JOINT RightShoulder_split
								{
									OFFSET -7.570500 7.247704 -3.868750
									CHANNELS 3 Xrotation Yrotation Zrotation
									JOINT RightArm
									{
										OFFSET -9.308998 -2.777710 0.208500
										CHANNELS 3 Xrotation Yrotation Zrotation
										JOINT RightForeArm
										{
											OFFSET -29.972300 0.000000 0.000000
											CHANNELS 3 Xrotation Yrotation Zrotation
											JOINT RightHand
											{
												OFFSET -26.026505 0.000000 0.000000
												CHANNELS 3 Xrotation Yrotation Zrotation
												End Site
												{
													OFFSET 0 0 0
												}
											}
										}
									}
								}
							}
						}
					}
				}
			}
		}
	}
}
MOTION
Frames: 4
Frame Time: 0.03333333
0.679860 40.965042 -16.406654 0.000000 0.000000 0.000000 -1.737841 -11.601410 2.037115 -0.229122 -0.228411 15.156306 98.753723 9.875525 0.848423 4.369888 4.234026 -11.384145 24.321721 19.105900 35.961277 0.000000 0.000000 0.000000 0.883736 -6.985512 1.061338 -6.363269 0.312529 -21.614434 85.370808 6.329897 -3.976373 3.111300 0.418723 28.374295 -12.688424 -14.070597 -28.264836 0.000000 0.000000 0.000000 -1.028340 -9.095617 0.320293 1.968650 1.815533 -0.000987 0.202633 -0.184022 0.585227 0.039733 -0.631244 0.436480 0.000000 0.000000 0.000000 0.166507 0.438459 -0.179216 -1.710969 2.129225 -1.177267 0.280302 -3.192773 0.851364 0.000000 0.000000 0.000000 -0.343791 0.405922 0.059130 0.464208 -5.028772 -21.684478 1.786252 1.495149 -3.152141 14.474551 -21.608342 -48.886218 1.259498 -27.705962 1.071163 0.000000 0.000000 0.000000 -0.735685 0.279636 -0.071013 0.437298 8.448106 22.381082 -5.615404 -4.017459 -1.918857 5.378840 5.672220 62.399099 2.659081 24.630987 0.441213 0.000000 0.000000 0.000000 
0.793943 40.884460 -16.318474 0.000000 0.000000 0.000000 -1.728079 -11.632324 1.913337 -0.214091 -0.261034 15.176829 98.898332 9.897975 0.842369 4.244606 4.274624 -11.553501 24.266595 19.082572 35.953361 0.000000 0.000000 0.000000 0.961729 -6.969312 0.949551 -6.335940 0.294923 -21.453884 85.130761 6.284692 -4.015435 3.192204 0.308904 28.357188 -12.960988 -14.036680 -28.246398 0.000000 0.000000 0.000000 -0.949712 -9.004210 0.144603 2.004562 1.867184 0.039842 0.141954 -0.172610 0.540307 0.178740 -0.837561 0.473945 0.000000 0.000000 0.000000 0.133108 0.430105 -0.187402 -1.467605 2.275962 -1.343049 0.868172 -2.796847 0.962068 0.000000 0.000000 0.000000 -0.419809 0.419858 -0.014785 0.440181 -4.983454 -21.758017 1.757438 1.614514 -3.096245 14.846089 -21.003262 -48.988343 1.525846 -28.141687 1.170652 0.000000 0.000000 0.000000 -0.738120 0.304932 -0.074664 0.463785 8.149609 22.370927 -5.575198 -4.154492 -2.040524 5.278459 5.553653 62.222702 2.630660 24.832992 0.454601 0.000000 0.000000 0.000000 
0.882977 40.781101 -16.236137 0.000000 0.000000 0.000000 -1.742505 -11.725510 1.709027 -0.128656 -0.367296 15.302552 99.044341 9.825476 0.820233 3.994462 4.333650 -11.676151 24.295466 19.092510 35.951254 0.000000 0.000000 0.000000 0.990730 -7.090195 0.742906 -6.325062 0.313959 -21.148173 84.956926 6.158904 -4.111765 3.238824 0.085753 28.326937 -13.336244 -13.973467 -28.232051 0.000000 0.000000 0.000000 -0.969407 -9.126203 -0.101550 1.968210 1.929257 0.054003 0.073343 -0.152520 0.539812 0.271662 -1.014152 0.559191 0.000000 0.000000 0.000000 0.097079 0.414806 -0.167641 -1.070319 2.349197 -1.214774 2.677969 -2.286358 0.850003 0.000000 0.000000 0.000000 -0.471057 0.398334 -0.055513 0.446161 -4.746227 -21.745859 1.755144 1.675792 -2.958857 15.128773 -19.619898 -49.491148 1.692544 -29.933967 1.260582 0.000000 0.000000 0.000000 -0.738620 0.303249 -0.048019 0.465421 7.698057 22.533296 -5.492918 -4.088917 -2.047018 5.057740 5.166926 61.816907 2.526076 24.844065 0.474143 0.000000 0.000000 0.000000 
0.935891 40.677765 -16.153778 0.000000 0.000000 0.000000 -1.777332 -11.818181 1.452507 0.017777 -0.528875 15.531089 99.160919 9.672512 0.774613 3.680903 4.436567 -11.719352 24.446215 19.142336 35.930658 0.000000 0.000000 0.000000 0.947541 -7.317419 0.481318 -6.429224 0.405827 -20.773406 84.923362 6.017837 -4.295199 3.330182 -0.177632 28.406605 -13.731183 -13.904805 -28.190614 0.000000 0.000000 0.000000 -1.074647 -9.410739 -0.392797 1.851479 2.001885 0.053104 0.001018 -0.132019 0.580423 0.314971 -1.133438 0.680859 0.000000 0.000000 0.000000 0.041644 0.395852 -0.114148 -0.568656 2.368570 -0.882213 5.515257 -1.762486 0.545338 0.000000 0.000000 0.000000 -0.486052 0.349535 -0.057055 0.479192 -4.392585 -21.654421 1.813552 1.689087 -2.761677 15.413427 -17.513764 -50.284819 1.771788 -32.657088 1.383965 0.000000 0.000000 0.000000 -0.737195 0.272681 0.007986 0.447720 7.149042 22.794467 -5.367616 -3.790938 -1.982110 4.784974 4.559269 61.206759 2.358834 24.651065 0.510526 0.000000 0.000000 0.000000 
